<svg class="{{include.logoClass}}" id="svg2" xmlns:rdf="http://www.w3.org/1999/02/22-rdf-syntax-ns#" xmlns="http://www.w3.org/2000/svg" height="105.54mm" width="207.17mm" version="1.1" xmlns:cc="http://creativecommons.org/ns#" xmlns:dc="http://purl.org/dc/elements/1.1/" viewBox="0 0 734.05287 373.96888">
 <metadata id="metadata7">
  <rdf:RDF>
   <cc:Work rdf:about="">
    <dc:format>image/svg+xml</dc:format>
    <dc:type rdf:resource="http://purl.org/dc/dcmitype/StillImage"/>
    <dc:title/>
   </cc:Work>
  </rdf:RDF>
 </metadata>
 <g id="layer1" transform="translate(-6.8558 -8.0727)">
  <path class="primary" id="path14" d="m732.98 161.85c-3.8982-1.7797-9.5994-4.4318-16.89-7.7234-7.2804-3.3056-16.145-7.282-26.323-11.81-10.178-4.5261-21.68-9.5906-34.244-15.077-6.285-2.7298-12.836-5.5731-19.611-8.516-6.7905-2.92-13.805-5.9379-21.018-9.0413-7.223-3.1097-14.597-6.1834-21.753-9.8105-0.88598-0.45914-1.7823-0.91982-2.6735-1.3816-0.8755-0.46798-1.7146-0.95056-2.5796-1.4243-0.43259-0.24128-0.85471-0.46277-1.2977-0.7197l-1.3445-0.80517-1.3498-0.80673-0.67749-0.40388-0.56281-0.36167c-3.4083-2.1565-6.8843-4.6267-10.673-6.9984-1.897-1.184-3.8773-2.3425-5.9566-3.4198-2.095-1.0657-4.2994-2.0272-6.6134-2.8256l-1.751-0.56961-1.9074-0.50917-0.47422-0.12089-0.40129-0.08446-0.79737-0.16833-0.80257-0.16885c-0.36479-0.06718-0.23451-0.03916-0.37-0.0636l-0.23451-0.0365-0.45859-0.07188c-2.4598-0.38564-4.9561-0.55188-7.442-0.51125-4.9717 0.07669-9.8392 0.98133-14.441 2.3045-4.6068 1.3393-8.9793 3.0826-13.206 4.9092-4.2264 1.8287-8.3231 3.7522-12.378 5.5163-1.0089 0.44037-2.0319 0.87501-3.0096 1.2784l-1.5499 0.62902c-0.4732 0.19543-1.0001 0.38148-1.4957 0.57326-0.73689 0.28715-1.4785 0.55919-2.2243 0.82601-0.62016-0.35281-1.2367-0.71292-1.8532-1.098l-4.0008-2.4264-2.0053-1.2059-0.45966-0.27776-0.48676-0.30696-0.9735-0.61391c-2.5812-1.6458-5.127-3.3061-7.4669-5.1103-0.60713-0.43463-1.1611-0.90939-1.7323-1.3654l-0.86-0.686c-0.28611-0.22931-0.54045-0.47894-0.8083-0.7171l-0.80362-0.72074c-0.26838-0.23973-0.54511-0.47946-0.75931-0.7171l-1.3888-1.4107-1.5139-1.7839-0.18764-0.22253-0.049-0.05583-0.0225-0.02812c-0.10269-0.11933 0.11151 0.13133 0.085 0.09591l-0.0761-0.10527-0.30382-0.42108-0.60716-0.83956c-0.40179-0.56753-0.78118-1.1939-1.1746-1.7854l-1.1476-1.9037-1.1788-2.0022c-0.42003-0.69208-0.81297-1.3722-1.2502-2.0742l-0.67021-1.0569-0.3304-0.5274c-0.11152-0.17615-0.25903-0.37314-0.38408-0.55867l-0.79009-1.1262-0.3976-0.55502-1.0897-1.3758-0.18291-0.22982-0.0897-0.11466-0.12923-0.15009-0.0271-0.03074-0.0579-0.06147-0.45549-0.48988-0.91095-0.97766-0.45549-0.4878c-0.15634-0.15738-0.31687-0.29965-0.47788-0.44974-0.63842-0.58629-1.2726-1.2038-1.9293-1.7599l-1.9824-1.6244c-2.6927-2.0585-5.4527-3.82-8.1856-5.4981-2.7376-1.6677-5.3991-3.2248-8.0829-4.8263l-8.0658-4.7518-0.23452-0.13811-0.4091-0.17041c-4.807-2.0054-9.4848-5.0191-14.128-8.2956-4.6616-3.2837-9.2931-6.8718-14.21-10.353-1.2221-0.87396-2.4838-1.7286-3.7444-2.5844-1.2877-0.83591-2.577-1.6697-3.9179-2.4671-2.6714-1.5989-5.4684-3.105-8.453-4.3964-2.9762-1.2961-6.1839-2.3326-9.552-2.9549-3.365-0.62747-6.9103-0.77181-10.394-0.34344l-1.3039 0.1798-0.6509 0.093335-0.63943 0.14278c-0.84947 0.19909-1.7104 0.37158-2.5463 0.60714l-2.4713 0.80153c-0.82966 0.29705-1.6833 0.6879-2.5176 1.0402l-0.62799 0.2736-0.30903 0.13759-0.24338 0.12767-0.974 0.5102-0.97352 0.5102-0.24389 0.12769-0.34447 0.18552-0.4805 0.26735-3.8429 2.1403-2.0262 1.1293-1.899 1.1137-3.7543 2.1878c-0.63371 0.3747-1.2132 0.68478-1.8125 1.0199l-1.7891 0.99434-2.9398 1.4978-0.12247 0.06204-0.0615 0.03177c0.0146-0.0076-0.0203 0.0099-0.0375 0.01876l-0.15895 0.07608-0.49562 0.23816-3.9659 1.9032-1.9824 0.95162-0.99173 0.4758-0.24754 0.11883-0.12403 0.05996-0.0621 0.02969-0.004 0.0018-0.44348 0.1996-7.7499 3.5209-4.0972 1.6025-2.0481 0.801-1.024 0.40075-0.12821 0.05006-0.0547 0.0214c-0.003 0.000943-0.007 0.0029-0.006 0.0029l-0.25276 0.09013-0.50602 0.18136-4.0472 1.4488c-1.3461 0.49196-2.7204 0.91721-4.08 1.38-2.7245 0.94171-5.4564 1.7302-8.1882 2.5755-1.3779 0.41223-2.8152 0.79474-4.2197 1.1934l-2.119 0.59254-0.64987 0.18292-0.56492 0.18761-1.1288 0.37679c-2.994 1.047-5.9223 2.2711-8.7073 3.7674-2.7938 1.4894-5.4407 3.1441-8.0803 5.0895l-1.7338 1.3539-1.7323 1.3722-3.4479 2.735-4.3401 3.5808-8.9991-6.5893-5.2318-3.8163c-1.7484-1.2659-3.4766-2.5635-5.2526-3.784l-10.599-7.419-10.625-7.3804-5.3125-3.6902-1.3284-0.92242-0.66394-0.46121-0.33144-0.23035-0.16625-0.1157-0.0417-0.02866-0.0203-0.01461-0.32885-0.21107-0.087-0.0511-0.34708-0.20533-0.17354-0.10319-0.0865-0.0511-0.0438-0.02602-0.085-0.04431c-0.49301-0.25536-1.0126-0.50134-1.516-0.70563-0.4534-0.15687-0.90888-0.31008-1.3727-0.43724-0.47214-0.10319-0.949-0.2095-1.4264-0.27465-1.9293-0.25796-3.8101-0.01772-5.3949 0.43777-1.5989 0.45652-2.9533 1.1064-4.1613 1.7974-2.3957 1.3977-4.2781 2.9585-6.0317 4.4897-1.7417 1.5369-3.3249 3.0706-4.855 4.5084-1.5197 1.4274-3.0096 2.786-4.3656 3.7799l-0.3429 0.25119-0.18085 0.17667-4.8717 4.7664-1.2174 1.1919-1.1731 1.1814-2.3462 2.3587-2.3253 2.3061-2.3399 2.2305c-0.77495 0.75984-1.5749 1.4394-2.365 2.1497l-2.5312 2.2659-2.4765 2.2425-1.2388 1.1215-0.6191 0.56075-0.54147 0.46695-5.1041 4.4224-4.9842 4.4521-1.2091 1.0767-1.2586 1.098-2.5182 2.1966-10.061 8.8-10.04 8.8245-20.181 17.465-20.15 17.559c-3.3499 2.9408-6.7061 5.8644-10.063 8.7276-3.3734 2.8569-6.7874 5.6534-10.288 8.3247-0.87396 0.6702-1.7646 1.3117-2.6464 1.971l-1.3268 0.98288c-0.44506 0.32364-0.90002 0.62954-1.3498 0.94536l-2.71 1.8798-2.7694 1.7854c-0.9167 0.61025-1.8631 1.1637-2.8079 1.7245l-1.416 0.84321c-0.47216 0.28142-0.94202 0.5696-1.4298 0.81976l-2.9036 1.5608-0.72736 0.38929-0.74368 0.35438-1.4875 0.7098c-1.964 1.0032-4.0165 1.7907-6.0481 2.6542-1.0252 0.40336-2.0742 0.7395-3.1108 1.1205l-1.5608 0.55972c-0.52421 0.17302-1.0578 0.3132-1.587 0.47215l-3.1891 0.92972-3.2443 0.72596-1.6278 0.36115-1.6455 0.26004-3.3018 0.53054 3.3439-0.16937 1.6774-0.0891 1.6652-0.2043 3.3398-0.41639 3.3101-0.62642c0.55147-0.10892 1.1086-0.20064 1.6571-0.32414l1.6359-0.41379c1.0887-0.28404 2.1886-0.54356 3.2698-0.86198 2.1403-0.69781 4.3177-1.3258 6.4103-2.1747l1.5836-0.60558 0.7923-0.30434 0.77603-0.33823 3.1047-1.3644c0.52271-0.21888 1.0261-0.47424 1.5327-0.72387l1.5207-0.7494c1.0162-0.49769 2.0361-0.99174 3.0169-1.5504l2.9757-1.628 2.9158-1.7255c0.48467-0.2908 0.9761-0.57274 1.4556-0.87083l1.429-0.90628c0.949-0.60973 1.9157-1.1986 2.8501-1.8287 3.7564-2.4994 7.418-5.1223 11.028-7.7989 3.6011-2.7032 7.1188-5.4491 10.634-8.1882l10.53-8.2388 10.515-8.2773 10.486-8.3289c3.4932-2.7777 7.0026-5.5439 10.465-8.3555l10.342-8.4691 10.321-8.4941 2.5776-2.1273 1.2883-1.0631 1.318-1.1106 5.1036-4.3146 5.101-4.2088 0.7343-0.61182 4.4099-3.8398 1.1596-1.0063 1.3315-1.1371c0.88177-0.76036 1.7917-1.5103 2.6245-2.2936l2.5432-2.3316 2.4671-2.3519 2.4124-2.3326 1.2033-1.1674 1.184-1.1314 4.5439-4.3443c1.9741-1.4524 3.5777-2.9194 5.1281-4.3312 1.6218-1.491 3.1503-2.9314 4.6517-4.2233 1.4926-1.2846 2.9835-2.4332 4.3224-3.1837 0.66237-0.36793 1.2752-0.62693 1.7469-0.75878 0.48049-0.13238 0.78171-0.13811 0.98965-0.111 0.0537 0.0099 0.10113 0.03384 0.15634 0.03016 0.0443 0.01923 0.0897 0.038 0.13759 0.04742-0.009-0.0076-0.0183-0.01829-0.0198-0.03441 0.003 0-0.008-0.0099 0.006-0.000943l0.0433 0.02555 0.086 0.05157 0.17303 0.1037 0.25222 0.15061 0.12039 0.08447 0.32989 0.23086 0.65924 0.46174 1.319 0.92346 5.2745 3.6949 10.55 7.3893 10.576 7.3507c1.7745 1.2096 3.4932 2.49 5.2354 3.7408l5.2114 3.7705 6.6946 4.8253-0.58211 0.45757c-0.5665 0.44036-1.1288 0.89324-1.7005 1.3232l-1.7213 1.2789c-1.1486 0.87918-2.2941 1.6406-3.4422 2.4468l-0.86457 0.60192-0.92556 0.5941-1.8527 1.1887-0.46278 0.29758-0.0574 0.03702c-0.0318 0.02035 0.0688-0.03957-0.00094 0.000951l-0.11465 0.06718-0.23034 0.13446-0.92035 0.5373-1.8428 1.0767c-1.2487 0.69415-2.5224 1.3576-3.784 2.0392l-3.8716 1.9397c-5.2088 2.5354-10.581 4.8737-15.929 7.3471-2.6771 1.2299-5.349 2.4916-7.9886 3.8351-1.319 0.67332-2.6412 1.3336-3.9367 2.0606l-1.947 1.0746c-0.64466 0.36532-1.2768 0.76034-1.9142 1.1387l-1.9032 1.1496-1.8532 1.2362-0.92241 0.62068-0.46018 0.31009-0.44559 0.33562-1.775 1.3404-0.88438 0.66811-0.84843 0.72595-1.6833 1.4493-0.41848 0.36168c-0.13498 0.12454-0.26162 0.25796-0.39086 0.38825l-0.77338 0.78536-1.5473 1.5697 1.7432-1.3498 0.87084-0.67488 0.4362-0.33666 0.45548-0.30643 1.8131-1.219 0.90313-0.60401 0.94536-0.55188 1.8855-1.0991 0.46956-0.27464 0.48675-0.24963 0.97142-0.49769 1.934-1.0006 1.9762-0.92294c0.66133-0.30226 1.3128-0.61912 1.9793-0.90835l2.0106-0.84634c1.3284-0.5842 2.6907-1.1048 4.0446-1.6374 2.712-1.0574 5.4585-2.0429 8.2101-3.032 5.5127-1.9569 11.078-3.8664 16.613-6.0406l4.1415-1.6937c1.367-0.61704 2.7423-1.2143 4.1066-1.8511l2.0335-1.0022 1.0178-0.50238 0.25379-0.1256 0.12716-0.06309c-0.0297 0.01922 0.11256-0.06043 0.11986-0.06462l0.0604-0.03282 0.4831-0.26422 1.9314-1.0548 0.96568-0.52688 0.98497-0.58889c1.307-0.79684 2.6537-1.5843 3.8893-2.4145l1.8912-1.232c0.62694-0.41431 1.2351-0.8453 1.8537-1.2669l1.8459-1.2763 1.8141-1.2982c1.2179-0.86197 2.3999-1.7385 3.5876-2.6182l7.0031-5.1885 7.1647-5.0937c2.1539-1.4347 4.546-2.8058 6.9833-3.969 2.4369-1.1799 4.9837-2.1096 7.5592-2.8892l0.96776-0.28716 0.43932-0.13132 0.0562-0.01358 0.13393-0.03281 0.26683-0.06515 2.1372-0.52114c1.4295-0.35439 2.8387-0.67853 4.2848-1.0574 2.9007-0.78797 5.8316-1.5322 8.6838-2.4108l2.1523-0.63736c0.71917-0.20846 1.4358-0.42421 2.1456-0.66811l4.2713-1.4139 0.53365-0.17667 0.26682-0.08862 0.32624-0.11726 1.034-0.37574 2.0669-0.75149 4.1342-1.5035 0.25848-0.09381 0.0646-0.02348c-0.21472 0.08909 0.36532-0.14696 0.32832-0.13288l0.12664-0.05421 0.50602-0.21575 1.011-0.43203 2.0226-0.86406 4.0446-1.7307 0.50499-0.21836 0.61547-0.28246 0.9985-0.46173 1.996-0.92243 3.9935-1.8459 0.49873-0.23034 0.24963-0.1157 0.36011-0.17563 2.9606-1.4545 2.0757-1.1064c0.68687-0.36949 1.404-0.74419 2.0372-1.1069l3.8804-2.1862 1.9074-1.0887 1.8219-1.0027 3.8533-2.1216 0.48155-0.26526 0.0604-0.03337c-0.006 0.0029-0.002 0.000943 0.004-0.0018l0.0761-0.03959 1.2205-0.63163 0.97662-0.50602 0.24441-0.12612c0.0709-0.03177 0.13081-0.05214 0.19648-0.07872l0.38617-0.15217c0.52323-0.19908 1.0006-0.43255 1.5514-0.6259l1.7156-0.54772c0.57483-0.15843 1.1575-0.26006 1.7333-0.40076l0.43358-0.10057 0.4383-0.05468 0.87603-0.11466c4.6684-0.54251 9.5291 0.39555 14.343 2.4635 4.819 2.0616 9.5224 5.0243 14.227 8.2528 4.7064 3.2264 9.4051 6.7577 14.382 10.16 2.4879 1.7047 5.0832 3.3452 7.7927 4.8925 2.612 1.4837 5.3527 2.8642 8.2737 4.018l7.875 4.3547c2.723 1.5014 5.5007 3.0044 8.1398 4.4949 2.6349 1.4894 5.1801 3.019 7.5113 4.6637l1.6926 1.2653c0.55345 0.42786 1.0491 0.88542 1.5848 1.3242 0.12976 0.11205 0.26841 0.2194 0.38878 0.33405l0.35753 0.35281 0.71447 0.70251 0.36167 0.35073 0.0443 0.04374 0.0225 0.02187c-0.0402-0.04582 0.11622 0.13341-0.0803-0.09798l0.0938 0.111 0.19231 0.22149 0.76345 0.88491 0.38411 0.44245 0.29444 0.38825 0.58056 0.76557c0.098 0.13184 0.19647 0.24336 0.29912 0.39241l0.308 0.44767 0.6207 0.89376c0.41586 0.60193 0.83069 1.256 1.2507 1.8813l1.2815 1.9736 1.38 2.0314c0.50029 0.68427 0.96883 1.3696 1.5051 2.0476l0.81716 1.0142 0.41065 0.50499 0.10265 0.12611 0.12979 0.15166 0.0268 0.0272 0.0495 0.05317 0.20066 0.21263 1.603 1.7021 1.9783 1.835c0.33509 0.3179 0.66078 0.57742 0.98704 0.83956l0.98236 0.79265c0.32623 0.26006 0.64777 0.53626 0.98285 0.78068l1.009 0.72959c0.66967 0.48363 1.3352 0.98183 2.0272 1.4149 2.7199 1.8376 5.5153 3.4197 8.293 4.9561l1.0402 0.57064 0.52272 0.28454 0.56233 0.29392 2.0726 1.0788 0.78536 0.40442c-6.9526 1.923-14.156 3.2759-21.452 4.3359-8.8423 1.307-17.849 2.132-26.893 2.9356-9.0424 0.78014-18.137 1.6051-27.2 2.7308-9.0627 1.1309-18.099 2.6782-26.925 4.9921-1.1205 0.31164-2.2399 0.62276-3.3567 0.93336-0.57219 0.15373-1.0871 0.3179-1.6108 0.48049l-1.5697 0.48623-0.78379 0.24285-0.4659 0.14645-0.40337 0.1381-1.6109 0.55032-1.6062 0.55398-1.5859 0.58994c-4.226 1.5697-8.3128 3.3463-12.286 5.212-7.9443 3.7449-15.409 7.8854-22.593 11.971-3.5943 2.0387-7.123 4.0628-10.614 6.0098-3.4917 1.9465-6.9442 3.8242-10.368 5.608-6.8463 3.5766-13.651 6.6269-20.402 9.0372-3.3796 1.1861-6.7446 2.2138-10.089 3.0544-0.83903 0.19334-1.6744 0.38617-2.5067 0.57794-0.41431 0.0907-0.83331 0.19804-1.2429 0.27569-0.40961 0.0781-0.81767 0.15635-1.2252 0.23399-0.40807 0.0781-0.81456 0.15583-1.2205 0.23349-0.40388 0.0787-0.8062 0.16102-1.2434 0.22095-0.85573 0.1329-1.7068 0.26474-2.5536 0.39555l-0.5717 0.087-0.6165 0.0714c-0.41015 0.0479-0.81925 0.0949-1.2278 0.14227-0.81923 0.086-1.6239 0.21056-2.4436 0.26317-1.6333 0.12978-3.2441 0.28195-4.8597 0.35334-0.80622 0.0433-1.6077 0.086-2.4046 0.12874-0.80153 0.0302-1.5978 0.0599-2.3905 0.0897-1.5916 0.0511-3.1633 0.10215-4.7153 0.15217-1.5634 0.0448-3.107 0.0891-4.6298 0.13291-1.5337 0.0567-3.0648 0.0912-4.5392 0.16519-0.73846 0.0349-1.4722 0.0698-2.2003 0.10423-0.37469 0.0209-0.70406 0.0266-1.1111 0.0599-0.36585 0.0286-0.72961 0.0567-1.0928 0.085-1.4488 0.11674-2.8767 0.23139-4.2817 0.34448-11.229 1.0022-20.864 2.9585-28.638 5.028-0.97247 0.2538-1.9194 0.50082-2.8397 0.74107-0.91409 0.26318-1.7948 0.54617-2.6511 0.80517-1.7073 0.53521-3.3082 1.0366-4.7966 1.5035-1.4691 0.52948-2.8288 1.0199-4.0743 1.4691-0.62121 0.2241-1.2138 0.43777-1.7776 0.64101-0.56493 0.1996-1.0981 0.39502-1.5895 0.60817-3.957 1.6494-6.0677 2.5296-6.0677 2.5296s2.1852-0.67436 6.2819-1.9386c0.50863-0.16937 1.0558-0.31634 1.6333-0.46539 0.57639-0.15217 1.1825-0.31267 1.8172-0.48049 1.2669-0.33458 2.65-0.70094 4.1441-1.096 1.5108-0.33302 3.1352-0.69105 4.867-1.0725 0.86562-0.18917 1.7536-0.40023 2.6745-0.58836 0.92608-0.16573 1.8787-0.33614 2.858-0.51072 7.8135-1.4326 17.396-2.6776 28.406-2.9507 1.3753-0.0219 2.773-0.0438 4.1916-0.0662 0.35437-0.006 0.7098-0.0136 1.0668-0.0198 0.31528-0.0102 0.7124 0.004 1.0662 0.006 0.72909 0.008 1.4634 0.0167 2.2029 0.0249 1.4821 0.013 2.9518 0.0683 4.4589 0.10061 1.5186 0.0458 3.0576 0.0922 4.6168 0.13916 3.1331 0.0891 6.3554 0.18136 9.6948 0.15059 1.6635 0.013 3.3629-0.0557 5.078-0.10422 0.85624-0.0109 1.7265-0.0959 2.5969-0.14227 0.43567-0.0276 0.87291-0.0552 1.3117-0.0839l0.65822-0.0417 0.70093-0.0688c0.8526-0.0865 1.7088-0.17353 2.5703-0.26162 0.42316-0.0365 0.87551-0.1 1.3294-0.16676 0.45183-0.0646 0.90523-0.12976 1.3596-0.19491 0.45496-0.0657 0.91097-0.13132 1.368-0.1975 0.45705-0.0668 0.89689-0.1574 1.3477-0.23504 0.89689-0.16469 1.8016-0.31895 2.7047-0.49561 3.6094-0.73429 7.2434-1.6651 10.888-2.7626 3.6464-1.0949 7.2736-2.4233 10.905-3.8658 3.6313-1.4451 7.2512-3.0414 10.858-4.7466 14.452-6.7973 28.687-15.356 43.963-22.137 3.819-1.6869 7.7098-3.2358 11.662-4.6293l1.4837-0.52271 1.4941-0.4857 1.4983-0.48206 0.37468-0.12091 0.31894-0.0938 0.78797-0.22879 1.5791-0.4586c0.52639-0.15322 1.0605-0.3132 1.552-0.43307 1.0048-0.25901 2.0106-0.51906 3.018-0.77964 4.1337-1.0053 8.3576-1.836 12.643-2.5432 4.2854-0.70875 8.6291-1.318 13.028-1.8172 17.594-2.0116 35.908-2.7339 54.391-5.3605 9.2305-1.3623 18.515-3.2024 27.571-6.1203 2.2597-0.74002 4.5147-1.5134 6.7342-2.3889 0.55817-0.21993 1.1027-0.40962 1.6792-0.65509l1.5942-0.66653c1.1121-0.47268 2.17-0.93807 3.2285-1.4128 4.228-1.8949 8.2877-3.8559 12.295-5.6393 4.0024-1.7844 7.9631-3.3963 11.903-4.5881 3.9346-1.208 7.8588-1.9835 11.7-2.1122 1.9283-0.06616 3.8304 0.0272 5.7013 0.28558l0.34918 0.04796 0.17716 0.02352c-0.006-0.0031 0.25536 0.04121 0.0365-0.002l0.8026 0.15479 0.80257 0.15374 0.4013 0.0771 0.3231 0.0818 1.2611 0.31581 1.355 0.41639c1.8135 0.59202 3.6011 1.3268 5.3782 2.169 1.7771 0.86354 3.5386 1.8334 5.3 2.8725 3.5282 2.0835 7.0407 4.4547 10.798 6.7035l0.77647 0.46538 0.68796 0.3872 1.3654 0.77233 1.3654 0.7713c0.46379 0.2564 0.97451 0.51072 1.4592 0.76556 0.97451 0.50082 1.9542 1.0194 2.9236 1.4972 0.96411 0.45964 1.923 0.91773 2.8819 1.3748 3.8408 1.7787 7.6608 3.4255 11.439 4.9368 3.7783 1.5316 7.5045 2.9742 11.168 4.3776 7.3272 2.8142 14.462 5.5507 21.362 8.1981 6.9052 2.624 13.576 5.1588 19.986 7.5926 12.825 4.8414 24.598 9.2435 35.042 13.108 10.449 3.8632 19.569 7.2012 27.094 9.92 7.5201 2.7329 13.456 4.8138 17.484 6.261 4.0492 1.4227 6.2068 2.181 6.2068 2.181s-2.0794-0.96255-5.9672-2.7673" fill="#100f0d"/>
  <text class="primary" id="text3342" style="word-spacing:0px;letter-spacing:0px" xml:space="preserve" font-size="77.101px" y="317.54742" x="0.35040736" font-family="sans-serif" line-height="125%" fill="#000000"><tspan id="tspan3344" font-weight="bold" font-size="173.48px" y="317.54742" x="0.35040736" font-family="Lato">GRANITE</tspan></text>
  <text class="secondary" id="text3346" style="word-spacing:0px;letter-spacing:0px" xml:space="preserve" font-size="54.891px" y="381.57498" x="4.1347852" font-family="sans-serif" line-height="125%" fill="#000000"><tspan id="tspan3348" y="381.57498" x="4.1347852" font-family="Lato">ENGINEERING &amp; SURVEYING</tspan></text>
 </g>
</svg>
